<?xml version="1.0" standalone="no"?>
<!DOCTYPE svg PUBLIC "-//W3C//DTD SVG 20010904//EN"
 "http://www.w3.org/TR/2001/REC-SVG-20010904/DTD/svg10.dtd">
<svg version="1.0" xmlns="http://www.w3.org/2000/svg"
 width="83.000000pt" height="74.000000pt" viewBox="0 0 83.000000 74.000000"
 preserveAspectRatio="xMidYMid meet">

<g transform="translate(0.000000,74.000000) scale(0.100000,-0.100000)"
fill="#000000" stroke="none">
<path d="M514 710 c-21 -8 -32 -21 -143 -154 -35 -42 -72 -81 -82 -86 -16 -9
-19 -6 -25 17 -18 86 -48 116 -116 115 -71 -1 -83 -44 -37 -134 26 -51 17
-153 -18 -185 -29 -28 -30 -66 -2 -118 45 -86 112 -130 159 -105 12 6 51 12
88 14 71 2 126 24 191 75 19 14 88 53 154 86 126 63 150 83 131 112 -21 33
-40 38 -111 26 -37 -7 -69 -10 -71 -8 -2 2 30 26 72 54 84 57 102 80 86 110
-32 60 -96 66 -181 16 -33 -19 -62 -35 -65 -35 -3 0 15 29 40 64 58 81 60 108
9 135 -25 13 -49 13 -79 1z m77 -20 c10 -6 19 -17 19 -24 0 -8 -38 -71 -85
-141 -47 -71 -85 -133 -85 -139 1 -10 6 -5 48 51 26 35 182 123 218 123 29 0
74 -30 74 -50 0 -9 -18 -24 -136 -109 -72 -52 -124 -105 -124 -126 0 -4 17 8
38 27 33 30 49 36 125 48 78 12 90 12 104 -2 8 -9 12 -21 8 -28 -4 -6 -58 -36
-120 -65 -62 -29 -136 -71 -165 -94 -89 -71 -215 -90 -279 -44 -14 11 -41 42
-60 69 l-33 49 5 97 c5 87 3 103 -20 158 -31 77 -27 90 31 90 57 0 81 -28 91
-105 3 -30 10 -55 14 -55 14 0 115 103 174 177 80 101 110 118 158 93z m-467
-450 c7 -37 56 -111 91 -138 30 -24 31 -32 5 -32 -50 0 -139 123 -126 175 9
34 22 31 30 -5z"/>
<path d="M210 265 c-18 -19 -30 -38 -27 -42 8 -7 77 55 77 69 0 16 -17 7 -50
-27z"/>
<path d="M266 228 c-33 -23 -54 -44 -47 -46 14 -5 121 65 121 79 0 16 -14 10
-74 -33z"/>
<path d="M300 179 c-19 -10 -39 -20 -45 -22 -5 -2 -7 -8 -3 -11 9 -10 98 30
98 43 0 14 -8 13 -50 -10z"/>
</g>
</svg>
