<?xml version="1.0" standalone="no"?>
<!DOCTYPE svg PUBLIC "-//W3C//DTD SVG 20010904//EN"
 "http://www.w3.org/TR/2001/REC-SVG-20010904/DTD/svg10.dtd">
<svg version="1.0" xmlns="http://www.w3.org/2000/svg"
 width="65.000000pt" height="54.000000pt" viewBox="0 0 65.000000 54.000000"
 preserveAspectRatio="xMidYMid meet">

<g transform="translate(0.000000,54.000000) scale(0.100000,-0.100000)"
fill="#000000" stroke="none">
<path d="M220 502 c-19 -9 -44 -34 -56 -55 -11 -20 -23 -35 -26 -31 -3 3 -22
-2 -42 -10 -48 -20 -63 -58 -42 -104 15 -30 15 -36 1 -55 -25 -36 -19 -76 18
-111 17 -17 40 -43 49 -58 10 -14 34 -32 54 -38 53 -18 163 -6 228 23 48 22
126 89 126 109 0 4 9 8 19 8 29 0 61 47 61 90 0 59 -28 137 -57 159 -14 12
-39 21 -55 21 -17 0 -42 8 -56 19 -36 25 -115 51 -155 51 -18 0 -48 -8 -67
-18z m134 -16 c112 -34 166 -100 173 -216 4 -61 3 -68 -27 -107 -65 -87 -246
-140 -329 -96 -45 23 -51 43 -14 44 15 0 37 4 48 9 14 6 4 9 -38 9 -48 1 -62
5 -82 26 -48 47 -21 112 42 102 61 -10 72 6 13 17 -43 9 -58 17 -69 37 -13 24
-13 29 2 53 15 23 24 26 73 26 59 0 111 17 133 44 11 14 7 13 -30 -4 -24 -11
-52 -20 -62 -20 -16 0 -16 2 -2 31 16 31 63 58 101 59 11 0 42 -6 68 -14z
m189 -74 c22 -24 47 -97 47 -137 0 -18 -8 -43 -19 -56 -18 -23 -18 -23 -23 53
-3 53 -11 87 -26 113 -12 20 -22 38 -22 41 0 11 29 2 43 -14z"/>
<path d="M435 352 c-62 -5 -68 -22 -8 -22 29 0 54 4 58 9 8 14 -4 17 -50 13z"/>
<path d="M413 282 c-68 -17 -88 -39 -25 -28 65 11 113 27 107 37 -4 5 -9 8
-13 8 -4 -1 -35 -9 -69 -17z"/>
<path d="M445 228 c-48 -25 -50 -26 -42 -34 8 -8 97 33 97 45 0 15 -9 13 -55
-11z"/>
</g>
</svg>
