<?xml version="1.0" standalone="no"?>
<!DOCTYPE svg PUBLIC "-//W3C//DTD SVG 20010904//EN"
 "http://www.w3.org/TR/2001/REC-SVG-20010904/DTD/svg10.dtd">
<svg version="1.0" xmlns="http://www.w3.org/2000/svg"
 width="90.000000pt" height="69.000000pt" viewBox="0 0 90.000000 69.000000"
 preserveAspectRatio="xMidYMid meet">

<g transform="translate(0.000000,69.000000) scale(0.100000,-0.100000)"
fill="#000000" stroke="none">
<path d="M292 561 c-29 -10 -55 -14 -58 -10 -13 21 -58 7 -94 -28 -71 -72 -91
-192 -36 -213 13 -5 28 -22 34 -39 16 -45 89 -119 147 -148 65 -34 142 -35
201 -5 l42 21 97 -49 c53 -28 104 -50 114 -50 46 0 68 82 35 129 -9 13 -44 41
-78 62 -57 36 -59 39 -31 38 17 0 50 -4 74 -8 25 -5 55 -5 68 0 46 17 38 100
-14 134 -13 9 -69 22 -125 29 -100 13 -118 22 -118 58 0 9 -12 30 -26 47 -44
52 -136 65 -232 32z m195 -28 c29 -21 58 -79 44 -87 -4 -3 -29 8 -54 24 -36
23 -44 25 -35 10 22 -35 81 -59 179 -70 52 -6 111 -16 132 -21 45 -12 72 -48
63 -85 -7 -27 -8 -27 -74 -20 -37 3 -112 8 -167 11 -99 5 -99 5 -44 -8 54 -12
201 -95 226 -127 17 -21 16 -75 -2 -90 -13 -11 -35 -4 -133 43 -64 31 -137 59
-162 63 -33 4 -41 3 -30 -5 8 -6 23 -11 32 -11 29 0 30 -20 1 -31 -40 -16
-112 -14 -155 4 -94 39 -176 154 -163 226 10 52 54 129 89 154 68 48 201 59
253 20z m-267 -3 c0 -5 -5 -10 -10 -10 -17 0 -68 -88 -81 -141 -14 -54 -25
-62 -35 -24 -13 54 63 185 107 185 10 0 19 -4 19 -10z"/>
<path d="M210 451 c0 -8 31 -23 78 -36 43 -12 22 13 -25 29 -55 19 -53 19 -53
7z"/>
<path d="M199 386 c15 -18 109 -58 124 -53 7 2 -16 18 -50 35 -69 35 -93 41
-74 18z"/>
<path d="M181 348 c0 -14 46 -54 73 -64 27 -10 18 10 -17 37 -47 37 -57 42
-56 27z"/>
</g>
</svg>
